<svg width="30" height="42" viewBox="0 0 30 42" fill="none" xmlns="http://www.w3.org/2000/svg">
<path d="M14.82 17.3041C14.73 17.3041 14.67 17.2705 14.61 17.2033L4.25998 5.5441C4.13998 5.4097 4.13998 5.2081 4.25998 5.0737C4.37998 4.9393 4.55998 4.9393 4.67998 5.0737L15.03 16.6993C15.15 16.8337 15.15 17.0353 15.03 17.1697C15 17.2705 14.91 17.3041 14.82 17.3041Z" fill="white"/>
<path d="M4.46998 28.9297C4.37998 28.9297 4.31998 28.8961 4.25998 28.8289C4.13998 28.6945 4.13998 28.4929 4.25998 28.3585L14.61 16.7329C14.73 16.5985 14.91 16.5985 15.03 16.7329C15.15 16.8673 15.15 17.0689 15.03 17.2033L4.67998 28.8289C4.61998 28.8961 4.55998 28.9297 4.46998 28.9297Z" fill="white"/>
<path d="M25.38 17.3041C25.29 17.3041 25.23 17.2705 25.17 17.2033L14.79 5.5441C14.67 5.4097 14.67 5.2081 14.79 5.0737C14.91 4.9393 15.09 4.9393 15.21 5.0737L25.56 16.6993C25.68 16.8337 25.68 17.0353 25.56 17.1697C25.53 17.2705 25.44 17.3041 25.38 17.3041Z" fill="white"/>
<path d="M15 28.9297C14.91 28.9297 14.85 28.8961 14.79 28.8289C14.67 28.6945 14.67 28.4929 14.79 28.3585L25.14 16.7329C25.26 16.5985 25.44 16.5985 25.56 16.7329C25.68 16.8673 25.68 17.0689 25.56 17.2033L15.24 28.8289C15.18 28.8961 15.09 28.9297 15 28.9297Z" fill="white"/>
</svg>
