<svg width="29" height="19" viewBox="0 0 29 19" fill="none" xmlns="http://www.w3.org/2000/svg">
<path d="M25.8929 19H3.10714C2.28308 19 1.49276 18.727 0.910061 18.2411C0.327359 17.7553 0 17.0962 0 16.4091V2.59091C0 1.90376 0.327359 1.24475 0.910061 0.75886C1.49276 0.27297 2.28308 0 3.10714 0H25.8929C26.7169 0 27.5072 0.27297 28.0899 0.75886C28.6726 1.24475 29 1.90376 29 2.59091V16.4091C29 17.0962 28.6726 17.7553 28.0899 18.2411C27.5072 18.727 26.7169 19 25.8929 19ZM3.10714 1.72727C2.83245 1.72727 2.56902 1.81826 2.37478 1.98023C2.18055 2.14219 2.07143 2.36186 2.07143 2.59091V16.4091C2.07143 16.6381 2.18055 16.8578 2.37478 17.0198C2.56902 17.1817 2.83245 17.2727 3.10714 17.2727H25.8929C26.1675 17.2727 26.431 17.1817 26.6252 17.0198C26.8195 16.8578 26.9286 16.6381 26.9286 16.4091V2.59091C26.9286 2.36186 26.8195 2.14219 26.6252 1.98023C26.431 1.81826 26.1675 1.72727 25.8929 1.72727H3.10714Z" fill="white"/>
<path d="M14.5001 11.2274C14.2877 11.2272 14.0805 11.1727 13.9066 11.0711L3.54947 5.0256C3.33358 4.89139 3.18887 4.69235 3.14602 4.47067C3.10316 4.24899 3.16553 4.02211 3.31989 3.83813C3.47426 3.65415 3.70849 3.52754 3.97292 3.48513C4.23736 3.44272 4.5112 3.48786 4.73639 3.61097L14.5001 9.30924L24.2638 3.60924C24.3749 3.54014 24.5016 3.49035 24.6362 3.46283C24.7709 3.4353 24.9108 3.4306 25.0477 3.449C25.1845 3.4674 25.3156 3.50852 25.433 3.56994C25.5505 3.63135 25.652 3.71181 25.7315 3.80654C25.8109 3.90126 25.8668 4.00833 25.8957 4.12139C25.9247 4.23445 25.9261 4.35121 25.8999 4.46473C25.8737 4.57826 25.8205 4.68625 25.7433 4.78229C25.6661 4.87834 25.5666 4.96049 25.4507 5.02388L15.0935 11.0693C14.9199 11.1716 14.7127 11.2267 14.5001 11.2274Z" fill="white"/>
</svg>
