<svg width="367" height="370" viewBox="0 0 367 370" fill="none" xmlns="http://www.w3.org/2000/svg">
<path d="M53.7598 370H173.465V238.477H130.457V195.117H173.465V140.918C173.465 111.032 197.581 86.7188 227.225 86.7188H280.984V130.078H237.977C226.119 130.078 216.473 139.803 216.473 151.758V195.117H279.044L271.876 238.477H216.473V370H313.24C342.884 370 367 345.687 367 315.801V54.1992C367 24.3134 342.884 0 313.24 0H53.7598C24.1163 0 0 24.3134 0 54.1992V315.801C0 345.687 24.1163 370 53.7598 370ZM21.5039 54.1992C21.5039 36.2683 35.9742 21.6797 53.7598 21.6797H313.24C331.026 21.6797 345.496 36.2683 345.496 54.1992V315.801C345.496 333.732 331.026 348.32 313.24 348.32H237.977V260.156H290.093L304.429 173.438H237.977V151.758H302.488V65.0391H227.225C185.723 65.0391 151.961 99.0773 151.961 140.918V173.438H108.953V260.156H151.961V348.32H53.7598C35.9742 348.32 21.5039 333.732 21.5039 315.801V54.1992Z" fill="#C4C4C4"/>
</svg>
