<svg height="495pt" viewBox="0 -15 495.88647 495" width="495pt" xmlns="http://www.w3.org/2000/svg"><path d="m235.414062 242.824219-49.382812-39.34375-15.753906 15.320312-7.578125 8.011719 8 7.578125 15.332031-11.238281 36.832031 30.328125zm0 0" fill="#ffeacf"/><path d="m474.363281 465.964844h-450.929687c-8.027344 0-14.535156-6.511719-14.535156-14.539063v-.3125c0-54.433593 44.125-98.558593 98.558593-98.558593h282.882813c54.433594 0 98.558594 44.125 98.558594 98.558593v.3125c0 8.027344-6.507813 14.539063-14.535157 14.539063zm0 0" fill="#f9bb32"/><path d="m163.457031 368.554688h280.691407c-15.476563-10.105469-33.945313-16-53.808594-16h-282.882813c-54.433593 0-98.558593 44.125-98.558593 98.558593v.3125c0 8.027344 6.507812 14.539063 14.535156 14.539063h41.496094c.617187-53.902344 44.480468-97.410156 98.527343-97.410156zm0 0" fill="#db9c2e"/><path d="m119.941406 363.089844h24c3.449219 0 6.210938-3.679688 6.101563-8.121094l-7.117188-283.027344h-21.964843l-7.117188 283.027344c-.113281 4.441406 2.652344 8.121094 6.097656 8.121094zm0 0" fill="#ffdf74"/><path d="m132.148438 354.96875 7.117187-283.027344h-18.304687l-7.117188 283.027344c-.113281 4.441406 2.648438 8.121094 6.097656 8.121094h18.304688c-3.445313 0-6.210938-3.679688-6.097656-8.121094zm0 0" fill="#ffd551"/><path d="m134.230469 106.050781c6.800781-31.195312-7.996094-69.558593-36.769531-90.980469-28.773438-21.425781-61.933594-18.773437-79.476563 4.421876zm0 0" fill="#ccc033"/><path d="m50.929688 19.492188c6.042968-7.984376 13.933593-13.535157 22.859374-16.503907-21.738281-6.429687-42.957031-.480469-55.804687 16.503907l116.246094 86.558593c1.648437-7.5625 2.015625-15.550781 1.234375-23.613281zm0 0" fill="#99af17"/><path d="m134.230469 106.050781c12.292969-28.261719 43.789062-41.890625 75.878906-30.800781s54.082031 43.203125 53.773437 75.605469zm0 0" fill="#ccc033"/><path d="m53.777344 75.246094c-32.089844 11.089844-54.085938 43.207031-53.77343775 75.609375l30.05078175-10.382813 4.832031-30.183594 13.730469 23.769532 81.042968-28.007813c-12.292968-28.261719-43.792968-41.894531-75.882812-30.804687zm0 0" fill="#ccc033"/><path d="m170.347656 15.070312c28.773438-21.425781 61.933594-18.769531 79.476563 4.421876l-26.941407 20.0625-19.964843-16.9375 3.324219 29.328124-72.660157 54.105469c-6.804687-31.195312 7.996094-69.558593 36.765625-90.980469zm0 0" fill="#ccc033"/><path d="m72.082031 79.96875c9.628907-3.328125 19.203125-4.414062 28.222657-3.5625-13.664063-6.011719-30.011719-6.867188-46.527344-1.15625-32.089844 11.085938-54.085938 43.203125-53.77343775 75.605469l19.10156275-6.601563c4.1875-28.304687 24.636719-54.492187 52.976562-64.285156zm0 0" fill="#99af17"/><path d="m192.3125 15.070312c9.566406-7.125 19.617188-11.570312 29.417969-13.5-15.917969-3.390624-34.410157.863282-51.382813 13.5-28.769531 21.421876-43.570312 59.785157-36.765625 90.980469l20.328125-15.136719c-.171875-27.691406 14.152344-57.789062 38.402344-75.84375zm0 0" fill="#99af17"/><path d="m228.414062 98.851562c9.914063 3.425782 18.863282 8.867188 26.492188 15.699219-9.273438-17.8125-25.132812-32.511719-44.796875-39.304687-32.089844-11.089844-63.589844 2.542968-75.878906 30.804687l27.085937 9.359375c15.304688-18.246094 41.003906-25.574218 67.097656-16.558594zm0 0" fill="#99af17"/><path d="m114.460938 330.484375h34.964843l-.59375-23.605469h-33.777343zm0 0" fill="#eacf32"/><path d="m115.648438 283.273438h32.589843l-.59375-23.609376h-31.402343zm0 0" fill="#eacf32"/><path d="m116.832031 236.058594h30.222657l-.59375-23.609375h-29.035157zm0 0" fill="#eacf32"/><path d="m118.019531 188.84375h27.847657l-.597657-23.605469h-26.652343zm0 0" fill="#eacf32"/><g fill="#ccc033"><path d="m115.054688 306.878906-.3125 12.324219-.28125 11.28125h18.300781l.59375-23.605469zm0 0"/><path d="m116.242188 259.664062-.0625 2.417969-.53125 21.191407h18.304687l.59375-23.609376zm0 0"/><path d="m117.425781 212.449219-.128906 5.28125-.464844 18.328125h18.304688l.59375-23.609375zm0 0"/><path d="m118.617188 165.238281-.308594 12.257813-.289063 11.347656h18.304688l.59375-23.605469zm0 0"/></g><path d="m120.605469 120.90625c-11.046875 0-20-8.957031-20-20 0-11.046875 8.953125-20 20-20s20 8.953125 20 20c0 11.042969-8.953125 20-20 20zm0 0" fill="#f9bb32"/><path d="m116.605469 100.90625c0-8.203125 4.941406-15.238281 12-18.324219-2.453125-1.074219-5.152344-1.675781-8-1.675781-11.046875 0-20 8.953125-20 20 0 11.042969 8.953125 20 20 20 2.847656 0 5.546875-.605469 8-1.675781-7.058594-3.085938-12-10.125-12-18.324219zm0 0" fill="#db9c2e"/><path d="m144.605469 144.90625c-11.046875 0-20-8.957031-20-20 0-11.046875 8.953125-20 20-20s20 8.953125 20 20c0 11.042969-8.953125 20-20 20zm0 0" fill="#f9bb32"/><path d="m140.605469 124.90625c0-8.203125 4.941406-15.238281 12-18.324219-2.453125-1.074219-5.152344-1.675781-8-1.675781-11.046875 0-20 8.953125-20 20 0 11.042969 8.953125 20 20 20 2.847656 0 5.546875-.605469 8-1.675781-7.058594-3.085938-12-10.125-12-18.324219zm0 0" fill="#db9c2e"/><path d="m351.941406 363.089844h24c3.449219 0 6.210938-3.679688 6.101563-8.121094l-7.121094-283.027344h-21.960937l-7.121094 283.027344c-.109375 4.441406 2.65625 8.121094 6.101562 8.121094zm0 0" fill="#ffdf74"/><path d="m364.148438 354.96875 7.117187-283.027344h-18.304687l-7.117188 283.027344c-.113281 4.441406 2.648438 8.121094 6.097656 8.121094h18.304688c-3.445313 0-6.210938-3.679688-6.097656-8.121094zm0 0" fill="#ffd551"/><path d="m366.230469 106.050781c6.800781-31.195312-7.996094-69.558593-36.769531-90.980469-28.773438-21.425781-61.933594-18.769531-79.476563 4.421876zm0 0" fill="#ccc033"/><path d="m282.929688 19.492188c6.042968-7.984376 13.933593-13.535157 22.859374-16.503907-21.738281-6.429687-42.957031-.480469-55.804687 16.503907l116.246094 86.558593c1.648437-7.5625 2.015625-15.550781 1.234375-23.613281zm0 0" fill="#99af17"/><path d="m366.230469 106.050781c12.292969-28.261719 43.789062-41.890625 75.878906-30.800781s54.082031 43.203125 53.773437 75.605469zm0 0" fill="#ccc033"/><path d="m285.777344 75.246094c-32.089844 11.089844-54.085938 43.207031-53.773438 75.609375l30.050782-10.382813 4.832031-30.183594 13.730469 23.769532 81.042968-28.007813c-12.292968-28.261719-43.792968-41.894531-75.882812-30.804687zm0 0" fill="#ccc033"/><path d="m402.347656 15.070312c28.773438-21.425781 61.933594-18.769531 79.476563 4.421876l-26.941407 20.0625-19.964843-16.9375 3.324219 29.328124-72.660157 54.105469c-6.804687-31.195312 7.996094-69.558593 36.765625-90.980469zm0 0" fill="#ccc033"/><path d="m304.082031 79.96875c9.628907-3.328125 19.203125-4.414062 28.222657-3.5625-13.664063-6.011719-30.011719-6.867188-46.527344-1.15625-32.089844 11.089844-54.085938 43.203125-53.773438 75.605469l19.101563-6.601563c4.1875-28.304687 24.636719-54.492187 52.976562-64.285156zm0 0" fill="#99af17"/><path d="m424.3125 15.070312c9.566406-7.125 19.617188-11.570312 29.417969-13.5-15.917969-3.390624-34.410157.863282-51.382813 13.5-28.769531 21.421876-43.570312 59.785157-36.765625 90.980469l20.328125-15.136719c-.171875-27.691406 14.152344-57.789062 38.402344-75.84375zm0 0" fill="#99af17"/><path d="m460.414062 98.851562c9.914063 3.425782 18.863282 8.867188 26.492188 15.699219-9.273438-17.8125-25.132812-32.511719-44.796875-39.304687-32.089844-11.089844-63.589844 2.542968-75.878906 30.804687l27.085937 9.359375c15.304688-18.246094 41.003906-25.574218 67.097656-16.558594zm0 0" fill="#99af17"/><path d="m346.460938 330.484375h34.964843l-.59375-23.605469h-33.777343zm0 0" fill="#eacf32"/><path d="m347.648438 283.273438h32.589843l-.59375-23.609376h-31.402343zm0 0" fill="#eacf32"/><path d="m348.832031 236.058594h30.222657l-.59375-23.609375h-29.035157zm0 0" fill="#eacf32"/><path d="m350.019531 188.84375h27.847657l-.597657-23.605469h-26.652343zm0 0" fill="#eacf32"/><path d="m347.054688 306.878906-.3125 12.324219-.28125 11.28125h18.300781l.59375-23.605469zm0 0" fill="#ccc033"/><path d="m348.242188 259.664062-.0625 2.417969-.53125 21.191407h18.304687l.59375-23.609376zm0 0" fill="#ccc033"/><path d="m349.425781 212.449219-.128906 5.28125-.464844 18.328125h18.304688l.59375-23.609375zm0 0" fill="#ccc033"/><path d="m350.617188 165.238281-.308594 12.257813-.289063 11.347656h18.304688l.59375-23.605469zm0 0" fill="#ccc033"/><path d="m352.605469 120.90625c-11.046875 0-20-8.957031-20-20 0-11.046875 8.953125-20 20-20s20 8.953125 20 20c0 11.042969-8.953125 20-20 20zm0 0" fill="#f9bb32"/><path d="m348.605469 100.90625c0-8.203125 4.941406-15.238281 12-18.324219-2.453125-1.074219-5.152344-1.675781-8-1.675781-11.046875 0-20 8.953125-20 20 0 11.042969 8.953125 20 20 20 2.847656 0 5.546875-.605469 8-1.675781-7.058594-3.085938-12-10.125-12-18.324219zm0 0" fill="#db9c2e"/><path d="m376.605469 144.90625c-11.046875 0-20-8.957031-20-20 0-11.046875 8.953125-20 20-20s20 8.953125 20 20c0 11.042969-8.953125 20-20 20zm0 0" fill="#f9bb32"/><path d="m372.605469 124.90625c0-8.203125 4.941406-15.238281 12-18.324219-2.453125-1.074219-5.152344-1.675781-8-1.675781-11.046875 0-20 8.953125-20 20 0 11.042969 8.953125 20 20 20 2.847656 0 5.546875-.605469 8-1.675781-7.058594-3.085938-12-10.125-12-18.324219zm0 0" fill="#db9c2e"/><path d="m314.234375 218.519531c0 9.960938-8.078125 18.039063-18.042969 18.039063-9.960937 0-18.039062-8.078125-18.039062-18.039063 0-9.964843 8.078125-18.039062 18.039062-18.039062 9.964844 0 18.042969 8.074219 18.042969 18.039062zm0 0" fill="#ffeacf"/><path d="m194.566406 228.480469 19.664063-17.855469 28.066406 27.503906-20.566406 17.019532zm0 0" fill="#ccc033"/><path d="m234.269531 244.480469 51.535157-18.917969 7.667968 20.894531-51.53125 18.917969zm0 0" fill="#ffeacf"/><path d="m115.1875 439.980469c0 9.941406-8.058594 18-18 18-9.9375 0-18-8.058594-18-18 0-9.941407 8.0625-18 18-18 9.941406 0 18 8.058593 18 18zm0 0" fill="#db9c2e"/><path d="m213.714844 222.730469 22.152344 20.71875 6.429687-5.320313-28.066406-27.503906-19.664063 17.855469 6.449219 6.332031zm0 0" fill="#99af17"/><path d="m380.59375 212.449219h-34.753906c-86.101563 54.136719-177.917969 8.316406-191.511719.960937-1.171875-.632812-2.46875-.960937-3.792969-.960937h-33.039062c-2.019532 0-3.65625 1.640625-3.65625 3.65625v8.71875c0 2.019531 1.636718 3.65625 3.65625 3.65625h35.109375s99.96875 112.574219 193.234375 0h34.753906c2.007812 0 3.636719-1.632813 3.636719-3.640625v-8.75c0-2.007813-1.628907-3.640625-3.636719-3.640625zm0 0" fill="#ff624b"/><path d="m254.292969 268.511719c-3.316407 0-6-2.683594-6-6 0-3.3125 2.683593-6 6-6 14.160156 0 28.089843-4.117188 41.390625-12.234375 2.824218-1.726563 6.519531-.835938 8.246094 1.996094 1.726562 2.828124.832031 6.519531-1.996094 8.246093-15.210938 9.285157-31.242188 13.992188-47.640625 13.992188zm0 0" fill="#ff9079"/><path d="m137.839844 224.824219v-8.71875c0-2.019531 1.640625-3.65625 3.65625-3.65625h-24c-2.019532 0-3.65625 1.636719-3.65625 3.65625v8.71875c0 2.019531 1.640625 3.65625 3.65625 3.65625h24c-2.019532 0-3.65625-1.636719-3.65625-3.65625zm0 0" fill="#ff4b34"/><path d="m176.605469 228.480469h-24s50.703125 57.070312 113.574219 49.28125c-51.285157-6.1875-89.574219-49.28125-89.574219-49.28125zm0 0" fill="#ff4b34"/></svg>