<svg width="26" height="32" viewBox="0 0 26 32" fill="none" xmlns="http://www.w3.org/2000/svg">
<path d="M13 0C9.55333 0.00330272 6.24889 1.21858 3.81173 3.37919C1.37456 5.5398 0.00372546 8.46927 0 11.5248C0 21.3985 11.8741 31.0933 12.3807 31.4884L13 32L13.6193 31.5009C14.1259 31.085 26 21.3985 26 11.5373C26 8.47958 24.6308 5.54691 22.1932 3.38361C19.7557 1.2203 16.4491 0.00330684 13 0ZM13 29.7624C10.8748 27.8991 1.84374 19.5061 1.84374 11.5248C1.84374 8.90175 3.01913 6.38612 5.11133 4.53132C7.20354 2.67653 10.0412 1.63452 13 1.63452C15.9588 1.63452 18.7965 2.67653 20.8887 4.53132C22.9809 6.38612 24.1563 8.90175 24.1563 11.5248C24.1563 19.5061 15.1252 27.8991 13 29.7624Z" fill="white"/>
<path d="M13.1783 4.99084C11.9637 4.99084 10.7764 5.31014 9.76646 5.90836C8.75656 6.50659 7.96944 7.35686 7.50464 8.35167C7.03983 9.34647 6.91822 10.4411 7.15517 11.4972C7.39213 12.5533 7.97701 13.5234 8.83586 14.2847C9.69471 15.0461 10.7889 15.5647 11.9802 15.7747C13.1715 15.9848 14.4062 15.877 15.5284 15.4649C16.6505 15.0528 17.6096 14.355 18.2844 13.4597C18.9592 12.5644 19.3194 11.5119 19.3194 10.4351C19.3169 8.99186 18.6691 7.60837 17.518 6.58786C16.3668 5.56734 14.8062 4.99304 13.1783 4.99084ZM13.1783 14.2448C12.3283 14.2448 11.4975 14.0214 10.7908 13.6028C10.0841 13.1841 9.53329 12.5891 9.20803 11.893C8.88277 11.1969 8.79767 10.4309 8.96348 9.69185C9.1293 8.95283 9.53858 8.274 10.1396 7.74121C10.7406 7.20841 11.5063 6.84557 12.3399 6.69857C13.1735 6.55157 14.0376 6.62701 14.8228 6.91536C15.608 7.20371 16.2792 7.69201 16.7514 8.31852C17.2236 8.94502 17.4756 9.68159 17.4756 10.4351C17.4744 11.4451 17.0212 12.4135 16.2156 13.1278C15.41 13.842 14.3176 14.2437 13.1783 14.2448Z" fill="white"/>
</svg>
