<?xml version="1.0" encoding="iso-8859-1"?>
<!-- Generator: Adobe Illustrator 19.0.0, SVG Export Plug-In . SVG Version: 6.00 Build 0)  -->
<svg version="1.1" id="Capa_1" xmlns="http://www.w3.org/2000/svg" xmlns:xlink="http://www.w3.org/1999/xlink" x="0px" y="0px"
	 viewBox="0 0 512 512" style="enable-background:new 0 0 512 512;" xml:space="preserve">
<path style="fill:#414B82;" d="M129.309,307.594H76.378c-0.18,0-0.357-0.01-0.535-0.014c15.005,15.935,59.702,63.126,59.702,63.126
	l-13.373,91.465c-1.555,10.632,5.805,20.512,16.438,22.067c0.955,0.14,1.902,0.207,2.839,0.207c9.499,0,17.812-6.967,19.227-16.645
	l14.739-100.816c0.863-5.904-1.03-11.877-5.136-16.205L129.309,307.594z"/>
<path style="fill:#BA6746;" d="M16.722,307.084c-1.266,0-2.551-0.145-3.837-0.447c-8.98-2.111-14.549-11.102-12.438-20.082
	l14.432-61.395c0.828-3.525,2.78-6.687,5.562-9.005l59.758-49.837c7.083-5.91,17.617-4.956,23.526,2.129
	c5.909,7.084,4.955,17.617-2.129,23.526l-55.472,46.264l-13.155,55.964C31.159,301.893,24.298,307.084,16.722,307.084z"/>
<path style="fill:#BE1E14;" d="M103.725,168.445c-5.909-7.085-16.443-8.039-23.526-2.129L43.814,196.66l19.531,27.211l38.25-31.9
	C108.68,186.063,109.634,175.529,103.725,168.445z"/>
<path style="fill:#C8E6EB;" d="M274.19,122.045c-1.438-4.464,1.015-9.247,5.478-10.685l23.805-7.847l-13.092-5.104
	c-2.282-0.89-4.068-2.721-4.901-5.024c-0.833-2.303-0.63-4.853,0.555-6.997l13.532-24.453l-14.893,7.905
	c-3.729,1.978-8.344,0.92-10.835-2.489l-8.479-11.598l-6.75,18.403c-0.897,2.444-2.865,4.342-5.34,5.148
	c-2.474,0.807-5.184,0.433-7.349-1.014l-29.298-19.584l8.686,20.88c0.886,2.129,0.867,4.528-0.052,6.643
	c-0.919,2.116-2.66,3.767-4.82,4.573l-13.56,5.057l27.463,10.244c4.393,1.638,6.626,6.529,4.987,10.922
	c-1.638,4.393-6.532,6.626-10.922,4.987l-48.79-18.2c-3.321-1.239-5.523-4.411-5.523-7.955s2.202-6.716,5.523-7.955l26.63-9.932
	l-16.085-38.666c-1.437-3.456-0.443-7.444,2.448-9.82c2.892-2.377,6.998-2.579,10.109-0.499l43.667,29.19l8.497-23.164
	c1.079-2.939,3.687-5.047,6.787-5.483c3.098-0.435,6.189,0.869,8.037,3.397l13.501,18.468l33.649-17.862
	c3.321-1.762,7.403-1.132,10.037,1.549c2.634,2.681,3.193,6.773,1.374,10.062l-22.673,40.972l26.289,10.249
	c3.347,1.305,5.51,4.575,5.403,8.165c-0.108,3.59-2.463,6.725-5.883,7.826l-46.529,15.167
	C280.393,128.965,275.622,126.491,274.19,122.045z"/>
<path style="fill:#5F6E9B;" d="M50.824,302.389l-0.796,4.568L29.993,462.492c-1.378,10.657,6.144,20.414,16.801,21.791
	c0.846,0.109,1.688,0.163,2.52,0.163c9.635,0,18.003-7.154,19.271-16.964l22.082-156.095c0.419-3.238-0.178-6.281-1.504-8.992
	C89.161,302.396,50.912,302.39,50.824,302.389z"/>
<path style="fill:#CD2D23;" d="M137.714,316.518l-87.688-9.563l21.95-125.882c2.363-13.551,14.795-22.701,27.769-20.439l41.523,7.24
	c6.293,1.098,11.864,4.787,15.463,10.24s4.925,12.216,3.681,18.771L137.714,316.518z"/>
<g>
	<circle style="fill:#BA6746;" cx="137.58" cy="116.296" r="36.868"/>
	<path style="fill:#BA6746;" d="M135.146,212.572c-6.337,0-12.395-3.625-15.202-9.764c-3.836-8.389-0.143-18.3,8.248-22.136
		l73.354-33.532l35.553-50.773c5.291-7.556,15.706-9.393,23.264-4.102c7.556,5.291,9.393,15.707,4.102,23.264l-38.159,54.494
		c-1.707,2.436-4.032,4.373-6.738,5.61l-77.486,35.421C139.83,212.084,137.469,212.572,135.146,212.572z"/>
</g>
<path style="fill:#BE1E14;" d="M171.746,160.762l-43.554,19.909c-8.39,3.836-12.082,13.746-8.248,22.136
	c2.807,6.139,8.865,9.764,15.202,9.764c2.323,0,4.683-0.487,6.934-1.516l42.868-19.595L171.746,160.762z"/>
<path style="fill:#FFB69E;" d="M495.279,306.893c-7.576,0-14.437-5.19-16.246-12.885l-13.155-55.964l-55.472-46.265
	c-7.084-5.909-8.038-16.442-2.129-23.526c5.909-7.086,16.442-8.037,23.526-2.129l59.758,49.838c2.781,2.319,4.734,5.48,5.562,9.005
	l14.432,61.395c2.111,8.98-3.458,17.971-12.438,20.082C497.83,306.748,496.545,306.893,495.279,306.893z"/>
<path style="fill:#64AFFF;" d="M468.08,196.379l-36.278-30.256c-7.085-5.908-17.617-4.956-23.526,2.129
	c-5.909,7.084-4.955,17.617,2.129,23.526l37.211,31.034L468.08,196.379z"/>
<path style="fill:#414B82;" d="M462.629,307.594h-38.578c-0.207,1.617-0.235,3.281-0.017,4.972l20.032,154.915
	c1.269,9.811,9.636,16.964,19.271,16.964c0.831,0,1.673-0.053,2.52-0.163c10.657-1.379,18.179-11.135,16.801-21.791L462.629,307.594
	z"/>
<path style="fill:#5F6E9B;" d="M380.365,307.594l-12.508,56.557c-0.111,0.499-0.201,1.002-0.272,1.508l-13.505,96.633
	c-1.487,10.642,5.934,20.475,16.577,21.962c0.914,0.128,1.82,0.19,2.718,0.189c9.551,0,17.885-7.038,19.245-16.766l13.399-95.874
	l14.201-64.211h-39.854V307.594z"/>
<path style="fill:#78BEFF;" d="M377.11,322.262l85.51-14.911l-21.95-125.882c-2.363-13.551-14.398-22.77-26.88-20.594l-40.307,7.028
	c-12.483,2.177-20.686,14.926-18.323,28.476L377.11,322.262z"/>
<g>
	<circle style="fill:#FFB69E;" cx="375.063" cy="116.689" r="36.868"/>
	<path style="fill:#FFB69E;" d="M377.501,212.967c-2.323,0-4.683-0.487-6.934-1.516l-77.486-35.421
		c-2.705-1.237-5.031-3.174-6.738-5.61l-38.159-54.493c-5.291-7.557-3.456-17.972,4.102-23.264
		c7.559-5.291,17.972-3.455,23.264,4.102l35.553,50.772l73.354,33.532c8.389,3.836,12.082,13.746,8.247,22.136
		C389.897,209.342,383.837,212.967,377.501,212.967z"/>
</g>
<path style="fill:#64AFFF;" d="M384.456,181.067l-36.985-16.907l-13.563,30.533l36.658,16.758c2.251,1.028,4.612,1.516,6.934,1.516
	c6.336,0,12.395-3.625,15.202-9.763C396.538,194.814,392.846,184.903,384.456,181.067z"/>
<g>
</g>
<g>
</g>
<g>
</g>
<g>
</g>
<g>
</g>
<g>
</g>
<g>
</g>
<g>
</g>
<g>
</g>
<g>
</g>
<g>
</g>
<g>
</g>
<g>
</g>
<g>
</g>
<g>
</g>
</svg>
