<svg width="32" height="33" viewBox="0 0 32 33" fill="none" xmlns="http://www.w3.org/2000/svg">
<path d="M25.0751 33C21.5232 33 15.4214 30.5923 8.86417 23.8412C5.26681 20.1116 2.48911 15.9571 0.986414 12.0386C-0.379671 8.16738 -0.334135 5.0515 1.16856 3.54077L1.48731 3.2103C1.71499 2.92704 1.98821 2.59657 2.26143 2.3133C3.39983 1.13305 4.62931 0 6.35968 0C7.86238 0 9.274 0.849786 10.6856 2.64378C14.3285 7.3176 12.9624 9.34764 10.7312 11.7082L10.5035 11.9442C10.5035 12.2275 10.8222 13.6438 14.7839 17.7511C18.5178 21.6223 19.975 22.0472 20.3848 22.0944L20.658 21.8112C21.7509 20.6781 22.8438 19.5451 24.6197 19.5451C25.9858 19.5451 27.6706 20.3476 29.4465 21.8584C31.0403 23.2747 31.8144 24.5966 31.9965 26.0129V26.0601C32.0876 28.3262 30.3572 29.9313 29.1733 31.0172C28.9912 31.206 28.809 31.3948 28.5813 31.5837C27.8072 32.5279 26.6688 33 25.0751 33ZM6.40522 1.74678C5.35789 1.74678 4.44716 2.59657 3.53644 3.54077C3.30876 3.77682 3.03554 4.1073 2.8534 4.34335L2.80786 4.39056L2.44357 4.76824C1.48731 5.75966 1.57838 8.35622 2.62572 11.3777C4.03734 15.0601 6.67844 19.0258 10.0936 22.5665C16.241 28.9399 22.0241 31.206 25.0751 31.206C26.4867 31.206 26.9876 30.7339 27.2152 30.3562C27.3063 30.2618 27.3519 30.1674 27.4885 30.1202C27.6251 30.0258 27.7617 29.8841 27.9438 29.6953L27.9894 29.6481C29.2188 28.515 30.3117 27.382 30.2662 26.1073C30.1296 25.2103 29.4921 24.2189 28.3081 23.133C26.3956 21.5279 25.1661 21.2446 24.6197 21.2446C23.6179 21.2446 22.9349 21.9056 21.8875 22.9914L21.5688 23.3219C21.25 23.6524 20.8402 23.794 20.4304 23.794C19.4741 23.794 17.7437 23.2747 13.5544 18.9313C9.36507 14.588 7.95345 11.9442 9.22846 10.6695L9.54721 10.3391C11.3231 8.49785 12.3249 7.45923 9.41061 3.6824C8.31774 2.40772 7.36148 1.74678 6.40522 1.74678Z" fill="white"/>
</svg>
