<?xml version="1.0" encoding="iso-8859-1"?>
<!-- Generator: Adobe Illustrator 19.0.0, SVG Export Plug-In . SVG Version: 6.00 Build 0)  -->
<svg version="1.1" id="Capa_1" xmlns="http://www.w3.org/2000/svg" xmlns:xlink="http://www.w3.org/1999/xlink" x="0px" y="0px"
	 viewBox="0 0 512 512" style="enable-background:new 0 0 512 512;" xml:space="preserve">
<circle style="fill:#C8E6EB;" cx="254.9" cy="65.187" r="62"/>
<path style="fill:#6C9BAA;" d="M235.8,85.087c-2.7,0-5.3-1.4-6.9-3.8c-2.4-3.8-1.2-8.8,2.6-11.1l15.3-9.5v-34.2
	c0-4.5,3.6-8.1,8.1-8.1s8.1,3.6,8.1,8.1v38.7c0,2.8-1.4,5.4-3.8,6.9l-19.2,11.8C238.7,84.787,237.2,85.087,235.8,85.087z"/>
<rect x="61.1" y="206.787" style="fill:#69280F;" width="156.8" height="177.3"/>
<rect x="76.1" y="377.387" style="fill:#823214;" width="127.6" height="23.5"/>
<g>
	<path style="fill:#965028;" d="M62.1,508.787c-7.7,0-14-6.3-14-14v-147.2c0-11.3-9.2-20.6-20.6-20.6H14c-7.7,0-14-6.3-14-14
		s6.3-14,14-14h13.6c26.8,0,48.6,21.8,48.6,48.6v147.3C76.1,502.587,69.8,508.787,62.1,508.787z"/>
	<path style="fill:#965028;" d="M217.7,508.787c-7.7,0-14-6.3-14-14v-147c0-26.8,21.8-48.6,48.6-48.6h13.6c7.7,0,14,6.3,14,14
		s-6.3,14-14,14h-13.6c-11.3,0-20.6,9.2-20.6,20.6v147C231.7,502.587,225.4,508.787,217.7,508.787z"/>
</g>
<path style="fill:#FFFFFF;" d="M140.5,102.787c21.3,0,38.5,17.2,38.5,38.5s-17.2,38.5-38.5,38.5s-38.5-17.2-38.5-38.5
	S119.2,102.787,140.5,102.787"/>
<g>
	<circle style="fill:#FFB69E;" cx="140.5" cy="141.287" r="38.5"/>
	<path style="fill:#FFB69E;" d="M252.5,276.487c-2.7-6.7-7.2-17.3-12.4-28.8l0,0c0-0.1-0.1-0.1-0.1-0.2c0-0.1-0.1-0.1-0.1-0.2
		c-6-13.4-10.6-23.1-14.4-30.9c-6.9-14.1-21.4-23.2-37.1-23.2c-10.9,0-85.4,0-96.3,0c-26.8,0-37.3,23.4-37.1,23.2
		c-5,10.7-10.5,22.6-15.3,33.5l0,0l0,0c-4.8,10.7-8.9,20.4-11.4,26.6c-3.5,8.7,0.6,18.6,9.1,22.4l53.7,23.7v15.7
		c0,17.6,14.3,31.9,31.9,31.9h35c17.4,0,31.5-14.1,31.5-31.5v-16l53.9-23.7C251.9,295.087,256,285.187,252.5,276.487z M67,273.887
		c1.8-4.2,3.8-8.7,5.9-13.3l0,0c0.6-1.4,1.2-2.7,1.8-4c0.1-0.2,0.2-0.5,0.3-0.7c0.1-0.2,0.1-0.3,0.2-0.5c3.7-8,7.5-16.3,11.1-23.7
		l0,0l0,0c1.5-3.1,4.6-3.5,4.7-3.5v56.4L67,273.887z M189.5,284.587v-56.5c2.1,0.3,4,1.7,4.9,3.6c4.5,9.3,9.2,19.4,13.5,29l0,0
		c2.1,4.6,4.1,9.1,5.9,13.3L189.5,284.587z"/>
</g>
<path style="fill:#64AFFF;" d="M225.6,216.487c-6.9-14.1-21.4-23.2-37.1-23.2h-28.8v0.1c0.5,11.3-9.9,20.8-20.8,20.8
	c-11.7,0-20.3-9.5-20.8-20.8v-0.1H92.2c-15.7,0-30.2,9.1-37.1,23.2c-5.3,10.9-10.7,22.6-15.5,33.4l33.3,10.8
	c5.7-12.7,9.9-21.6,13.5-29c0.9-1.9,2.7-3.2,4.7-3.5v110c0,17.6,14.3,31.9,31.9,31.9h35c17.4,0,31.5-14.1,31.5-31.5v-110.5
	c2.1,0.3,3.9,1.6,4.9,3.6c3.6,7.4,7.8,16.3,13.5,29l32.3-13C234,234.087,229.4,224.287,225.6,216.487z"/>
<g>
	<path style="fill:#343E6B;" d="M149.9,508.387c-12.2-2.4-20.2-14.2-17.9-26.4l23.6-122.7c2.4-12.2,14.2-20.2,26.4-17.9
		c12.2,2.4,20.2,14.2,17.9,26.4l-23.6,122.7C173.9,502.787,162.1,510.787,149.9,508.387z"/>
	<rect x="91.2" y="341.087" style="fill:#343E6B;" width="98.2" height="36.3"/>
</g>
<path style="fill:#414B82;" d="M104.9,490.987l-26.4-122.7c-2.6-12.2,5.1-24.1,17.3-26.7s24.1,5.1,26.7,17.3l26.3,122.7
	c2.6,12.2-5.1,24.1-17.3,26.7C119.5,510.887,107.5,503.187,104.9,490.987z"/>
<g>
	<path style="fill:#FFB69E;" d="M190.2,284.287l-25.3,11.1c-8.8,3.9-12.8,14.1-8.9,22.9c3.9,8.8,14.1,12.8,22.9,8.9l11.1-4.9
		L190.2,284.287L190.2,284.287z"/>
	<path style="fill:#FFB69E;" d="M116.4,295.687l-26.3-11.6l-0.3,37.8l12.6,5.6c8.8,3.9,19-0.1,22.9-8.9
		C129.2,309.787,125.2,299.487,116.4,295.687z"/>
</g>
<rect x="293.4" y="206.787" style="fill:#69280F;" width="156.8" height="177.3"/>
<rect x="308.3" y="377.387" style="fill:#823214;" width="127.6" height="23.5"/>
<path style="fill:#BA6746;" d="M484.7,276.487c-2.7-6.7-7.2-17.3-12.4-28.8l0,0c0-0.1-0.1-0.1-0.1-0.2c0-0.1-0.1-0.1-0.1-0.2
	c-6-13.4-10.6-23.1-14.4-30.9c-6.9-14.1-21.4-23.2-37.1-23.2c-10.9,0-85.4,0-96.3,0c-15.6,0-30.2,9-37.1,23.2l0,0
	c-5.2,10.6-10.7,22.6-15.5,33.4l0,0l0,0c-4.8,10.7-8.9,20.4-11.4,26.6c-3.5,8.7,0.6,18.6,9.1,22.4l53.7,23.7v17
	c0,16.9,14.3,30.6,31.9,30.6h35c17.4,0,31.5-13.5,31.5-30.2v-17.3l53.9-23.7C484.2,295.087,488.2,285.187,484.7,276.487z
	 M299.3,273.887c1.8-4.2,3.8-8.7,5.9-13.3l0,0c4.3-9.5,8.9-19.6,13.5-28.9l0,0l0,0c1.5-3.1,4.6-3.4,4.7-3.5v56.4L299.3,273.887z
	 M421.7,284.587v-56.5c2.1,0.3,4,1.7,4.9,3.6c4.5,9.3,9.2,19.5,13.5,29l0,0c2.1,4.6,4.1,9.1,5.9,13.3L421.7,284.587z"/>
<g>
	<path style="fill:#965028;" d="M294.3,508.787c-7.7,0-14-6.3-14-14v-147.2c0-11.3-9.2-20.6-20.6-20.6h-13.6c-7.7,0-14-6.3-14-14
		s6.3-14,14-14h13.6c26.8,0,48.6,21.8,48.6,48.6v147.3C308.3,502.587,302.1,508.787,294.3,508.787z"/>
	<path style="fill:#965028;" d="M449.9,508.787c-7.7,0-14-6.3-14-14v-147c0-26.8,21.8-48.6,48.6-48.6H498c7.7,0,14,6.3,14,14
		s-6.3,14-14,14h-13.6c-11.3,0-20.6,9.2-20.6,20.6v147C463.9,502.587,457.6,508.787,449.9,508.787z"/>
</g>
<path style="fill:#FFFFFF;" d="M372.7,102.787c21.3,0,38.5,17.2,38.5,38.5s-17.2,38.5-38.5,38.5s-38.5-17.2-38.5-38.5
	S351.4,102.787,372.7,102.787"/>
<circle style="fill:#BA6746;" cx="372.7" cy="141.287" r="38.5"/>
<path style="fill:#FF3C3C;" d="M457.8,216.487c-6.9-14.1-21.4-23.2-37.1-23.2H392v0.1c0.5,11.3-9.9,20.8-20.8,20.8
	c-11.7,0-20.3-9.5-20.8-20.8v-0.1h-25.8c-15.7,0-30.2,9.1-37.1,23.2c-5.3,10.9-10.7,22.6-15.5,33.4l33.3,10.8
	c5.7-12.7,9.9-21.6,13.5-29c0.9-1.9,2.7-3.2,4.7-3.5v111.3c0,16.9,14.3,30.6,31.9,30.6h35c17.4,0,31.5-13.5,31.5-30.2v-111.8
	c2.1,0.3,3.9,1.6,4.9,3.6c3.6,7.4,7.8,16.3,13.5,29l32.3-13C466.3,234.087,461.6,224.287,457.8,216.487z"/>
<g>
	<path style="fill:#343E6B;" d="M382.1,508.387c-12.2-2.4-20.2-14.2-17.9-26.4l23.6-122.7c2.4-12.2,14.2-20.2,26.4-17.9
		c12.2,2.4,20.2,14.2,17.9,26.4l-23.6,122.7C406.2,502.787,394.4,510.787,382.1,508.387z"/>
	<rect x="323.4" y="341.087" style="fill:#343E6B;" width="98.2" height="36.3"/>
</g>
<path style="fill:#414B82;" d="M337.1,490.987l-26.3-122.7c-2.6-12.2,5.1-24.1,17.3-26.7c12.2-2.6,24.1,5.1,26.7,17.3l26.3,122.7
	c2.6,12.2-5.1,24.1-17.3,26.7C351.7,510.887,339.7,503.187,337.1,490.987z"/>
<g>
	<path style="fill:#BA6746;" d="M422.1,284.387l-25.5,11.2c-8.8,3.9-12.8,14.1-8.9,22.9s14.1,12.8,22.9,8.9l12.6-5.5L422.1,284.387
		L422.1,284.387z"/>
	<path style="fill:#BA6746;" d="M348.6,295.687l-27.5-12.1l1.3,38.6l12.1,5.3c8.8,3.9,19-0.1,22.9-8.9
		C361.4,309.787,357.4,299.487,348.6,295.687z"/>
</g>
<g>
</g>
<g>
</g>
<g>
</g>
<g>
</g>
<g>
</g>
<g>
</g>
<g>
</g>
<g>
</g>
<g>
</g>
<g>
</g>
<g>
</g>
<g>
</g>
<g>
</g>
<g>
</g>
<g>
</g>
</svg>
